<?xml version="1.0" encoding="UTF-8"?>
<svg xmlns="http://www.w3.org/2000/svg" xmlns:xlink="http://www.w3.org/1999/xlink" width="150pt" height="149.999998pt" viewBox="0 0 150 149.999998" version="1.2">
<g id="surface1">
<path style=" stroke:none;fill-rule:nonzero;fill:rgb(86.669922%,87.449646%,90.19928%);fill-opacity:1;" d="M 103.359375 66.796875 L 66.09375 39.609375 C 64.21875 38.203125 62.34375 37.5 60.46875 37.5 C 57.421875 37.5 53.671875 39.84375 53.671875 46.171875 L 53.671875 103.59375 C 53.671875 110.15625 57.1875 112.265625 60.46875 112.265625 C 62.34375 112.265625 64.21875 111.5625 66.09375 110.15625 L 103.359375 82.734375 C 106.171875 80.625 107.8125 77.8125 107.8125 74.53125 C 107.8125 71.953125 106.171875 68.90625 103.359375 66.796875 Z M 100.78125 79.21875 L 63.28125 106.640625 C 62.34375 107.34375 61.171875 107.8125 60.46875 107.8125 C 58.59375 107.8125 58.59375 104.296875 58.59375 103.828125 L 58.59375 46.171875 C 58.59375 45.46875 58.59375 42.1875 60.703125 42.1875 C 61.40625 42.1875 62.34375 42.65625 63.515625 43.359375 L 100.78125 70.78125 C 102.421875 71.953125 103.359375 73.59375 103.359375 75 C 103.125 76.640625 102.421875 78.046875 100.78125 79.21875 Z M 100.78125 79.21875 "/>
<path style=" stroke:none;fill-rule:nonzero;fill:rgb(86.669922%,87.449646%,90.19928%);fill-opacity:1;" d="M 75 0 C 33.75 0 0 33.75 0 75 C 0 116.25 33.515625 150 75 150 C 116.484375 150 150 116.484375 150 75 C 150 33.75 116.25 0 75 0 Z M 75 145.3125 C 36.328125 145.3125 4.6875 113.671875 4.6875 75 C 4.6875 36.328125 36.328125 4.6875 75 4.6875 C 113.671875 4.6875 145.3125 36.09375 145.3125 75 C 145.3125 113.671875 113.671875 145.3125 75 145.3125 Z M 75 145.3125 "/>
</g>
</svg>
