<?xml version="1.0" encoding="UTF-8"?>
<svg xmlns="http://www.w3.org/2000/svg" xmlns:xlink="http://www.w3.org/1999/xlink" width="375pt" height="95.999999pt" viewBox="0 0 375 95.999999" version="1.2">
<g id="surface1">
<path style=" stroke:none;fill-rule:nonzero;fill:rgb(94.119263%,54.119873%,36.468506%);fill-opacity:1;" d="M 332.261719 67.4375 C 325.9375 64.429688 319.726562 61.164062 313.273438 58.46875 C 253.15625 33.433594 190.699219 20.34375 125.34375 21.777344 C 100.144531 22.335938 75.394531 25.242188 51.300781 32.890625 C 35.179688 38.003906 20.277344 45.148438 8.519531 57.726562 C 7.972656 58.3125 7.214844 58.683594 6.613281 59.101562 C -0.472656 54.359375 -2.078125 46.125 2.824219 39.808594 C 9.308594 31.441406 17.871094 25.628906 27.164062 20.945312 C 49.089844 9.902344 72.652344 4.761719 96.90625 2.296875 C 106.585938 4.1875 116.023438 1.023438 125.617188 0.894531 C 135.296875 0.75 144.992188 0.234375 154.671875 0.25 C 186.082031 0.292969 216.898438 4.976562 247.417969 12.09375 C 274.679688 18.453125 301.011719 27.417969 326.398438 39.191406 C 326.828125 39.390625 327.316406 39.449219 328.492188 39.777344 C 327.402344 36.800781 325.535156 34.964844 323.914062 33.117188 C 321.019531 29.824219 319.585938 26.789062 322.480469 22.492188 C 323.886719 20.414062 323.902344 17.40625 327.199219 16.191406 C 328.089844 16.90625 329.207031 17.59375 330.054688 18.539062 C 344.207031 34.320312 358.347656 50.105469 372.433594 65.945312 C 375.746094 69.683594 375.71875 70.902344 373.164062 75.253906 C 372.675781 76.085938 372.21875 76.960938 371.960938 77.875 C 370.308594 83.648438 366.683594 86.210938 360.773438 86.570312 C 346.273438 87.457031 331.789062 88.519531 317.320312 89.691406 C 313.675781 89.992188 310.019531 90.765625 306.519531 91.8125 C 303.421875 92.742188 300.523438 94.347656 297.296875 95.765625 C 295.71875 91.441406 297.914062 87.757812 300.09375 84.035156 C 303.867188 77.589844 309.632812 73.964844 316.730469 72.234375 C 321.863281 70.988281 327.011719 69.757812 332.164062 68.523438 C 332.175781 68.167969 332.21875 67.808594 332.261719 67.4375 Z M 332.261719 67.4375 "/>
</g>
</svg>
